<?xml version="1.0" encoding="utf-8"?>

<svg version="1.1" id="Layer_1" xmlns="http://www.w3.org/2000/svg" xmlns:xlink="http://www.w3.org/1999/xlink" x="0px" y="0px" viewBox="0 0 276 276" style="enable-background:new 0 0 276 276;" xml:space="preserve">

<g>
&#x9;<path class="st0" d="M61.45,165.28l-3.8-25.68l-7.92,1.17l-0.59-3.98l20.27-3l0.59,3.98l-7.96,1.18l3.8,25.68L61.45,165.28z"></path>
&#x9;<path class="st0" d="M88.9,161.64c-2.84,0.42-5.15-0.03-6.93-1.36c-1.77-1.33-2.86-3.33-3.26-6.02l-3.16-21.37l4.39-0.65&#xA;&#x9;&#x9;l3.16,21.33c0.22,1.52,0.78,2.65,1.67,3.41c0.89,0.76,2.07,1.02,3.56,0.8c1.49-0.22,2.55-0.82,3.18-1.8s0.83-2.23,0.61-3.74&#xA;&#x9;&#x9;l-3.16-21.33l4.39-0.65l3.16,21.37c0.4,2.71-0.06,4.95-1.37,6.72C93.82,160.12,91.74,161.22,88.9,161.64z"></path>
&#x9;<path class="st0" d="M105.13,158.82l-4.39-29.66l5.57-0.82l12.26,23.39c-0.17-0.75-0.37-1.66-0.61-2.73&#xA;&#x9;&#x9;c-0.24-1.07-0.47-2.19-0.68-3.34s-0.39-2.23-0.54-3.2l-2.27-15.32l4.06-0.6l4.39,29.66L117.4,157l-12.26-23.39&#xA;&#x9;&#x9;c0.16,0.72,0.35,1.6,0.58,2.63c0.22,1.03,0.44,2.11,0.67,3.24c0.22,1.13,0.41,2.18,0.55,3.16l2.3,15.56L105.13,158.82z"></path>
&#x9;<path class="st0" d="M131.01,154.99l-0.59-3.98l5.97-0.88l-3.21-21.7l-5.97,0.88l-0.59-3.98l16.45-2.43l0.59,3.98l-6.01,0.89&#xA;&#x9;&#x9;l3.21,21.7l6.01-0.89l0.59,3.98L131.01,154.99z"></path>
&#x9;<path class="st0" d="M164.59,150.44c-2.93,0.43-5.38,0.01-7.37-1.28c-1.99-1.28-3.18-3.27-3.58-5.95l4.31-0.64&#xA;&#x9;&#x9;c0.22,1.49,0.88,2.59,1.98,3.3s2.46,0.94,4.09,0.7c1.6-0.24,2.79-0.86,3.59-1.86c0.79-1,1.08-2.22,0.87-3.66&#xA;&#x9;&#x9;c-0.16-1.08-0.6-1.99-1.31-2.71c-0.72-0.72-1.65-1.15-2.81-1.29l-4.43-0.51c-2.08-0.25-3.81-1-5.17-2.27&#xA;&#x9;&#x9;c-1.36-1.26-2.19-2.9-2.49-4.9c-0.24-1.63-0.09-3.09,0.45-4.41c0.54-1.31,1.42-2.4,2.65-3.28c1.23-0.87,2.72-1.44,4.48-1.7&#xA;&#x9;&#x9;c1.76-0.26,3.36-0.15,4.8,0.33c1.44,0.48,2.62,1.27,3.55,2.36s1.5,2.44,1.74,4.04l-4.31,0.64c-0.19-1.27-0.77-2.23-1.73-2.88&#xA;&#x9;&#x9;c-0.97-0.65-2.13-0.87-3.48-0.67c-1.35,0.2-2.39,0.75-3.1,1.64c-0.71,0.89-0.97,1.96-0.79,3.21c0.15,1,0.55,1.8,1.21,2.4&#xA;&#x9;&#x9;c0.65,0.59,1.5,0.95,2.55,1.08l4.56,0.53c2.14,0.24,3.92,1.05,5.34,2.45s2.29,3.16,2.61,5.3c0.26,1.76,0.09,3.34-0.5,4.75&#xA;&#x9;&#x9;c-0.6,1.4-1.55,2.56-2.85,3.47C168.13,149.55,166.51,150.15,164.59,150.44z"></path>
&#x9;<path class="st0" d="M181.39,147.54l-0.59-3.98l5.97-0.88l-3.21-21.7l-5.97,0.88l-0.59-3.98l16.46-2.43l0.59,3.98l-6.01,0.89&#xA;&#x9;&#x9;l3.21,21.7l6.01-0.89l0.59,3.98L181.39,147.54z"></path>
&#x9;<path class="st0" d="M204.35,144.14l3.17-30.78l5.77-0.85l11.99,28.54l-4.47,0.66l-2.9-7.25l-8.41,1.24l-0.67,7.78L204.35,144.14z&#xA;&#x9;&#x9; M209.76,131.92l6.74-1l-3.29-8.23c-0.58-1.46-1.06-2.74-1.46-3.81s-0.67-1.83-0.81-2.25c-0.02,0.45-0.05,1.24-0.1,2.38&#xA;&#x9;&#x9;c-0.05,1.14-0.16,2.49-0.32,4.03L209.76,131.92z"></path>
</g>
<circle class="st14" cx="137.71" cy="137.99" r="127.9"></circle>
<circle class="st15" cx="137.71" cy="137.99" r="113.58"></circle>
<path class="st0" d="M138.89,105.84c-10.27,1.68-19.89,1.79-29.47,0.36c-7.84-1.17-15.43-3.27-21.9-8.2&#xA;&#x9;c-4.44-3.39-7.26-7.65-7.2-13.47c0.04-3.88,1.57-7.22,3.8-10.23c3.91-5.27,9.09-9.06,14.84-12.1c1.73-0.92,3.53-1.73,5.22-2.71&#xA;&#x9;c0.53-0.31,0.84-1.02,1.19-1.58c0.88-1.38,1.67-2.83,2.61-4.17c1.97-2.79,4.7-4.19,8.12-4.33c4.11-0.18,7.98,0.81,11.82,2.15&#xA;&#x9;c1.01,0.35,2.19,0.55,3.24,0.42c7.69-1,15.4-1.41,23.11-0.7c7.46,0.68,14.81,2.11,21.57,5.52c4.33,2.18,8.3,4.87,10.69,9.35&#xA;&#x9;c2.71,5.09,2.4,10.13-0.31,15.05c-3.09,5.61-7.81,9.69-13.28,12.8c-4.46,2.53-9.05,4.95-13.84,6.76&#xA;&#x9;C152.37,103.27,145.41,105.17,138.89,105.84z M134.22,53.85c0,0.16,0,0.32,0.01,0.48c1.99,1.3,3.94,2.65,5.98,3.87&#xA;&#x9;c0.85,0.51,1.86,0.93,2.83,1.05c4.26,0.52,8.57,0.71,12.79,1.42c4.52,0.76,8.79,2.38,12.4,5.38c4.63,3.85,5.49,9.05,2.3,14.16&#xA;&#x9;c-0.9,1.44-1.84,2.76-1.84,4.6c0,0.71-0.67,1.59-1.28,2.1c-1.17,0.98-2.43,1.92-3.81,2.57c-5.4,2.57-11.07,4.34-16.92,5.6&#xA;&#x9;c-11.06,2.38-22.15,3.8-33.44,1.96c-4.9-0.8-9.63-2.09-13.75-4.97c-3.93-2.75-6.28-6.36-5.12-11.42c0.61-2.65,2.17-4.78,3.99-6.77&#xA;&#x9;c0.85-0.93,1.51-2.1,2.01-3.26c0.61-1.4,0.96-2.92,1.42-4.38c0.35-1.11,0.7-2.21,1.17-3.71c-2.63,1.53-4.89,2.7-7,4.1&#xA;&#x9;c-4.31,2.85-8.26,6.11-10.98,10.63c-4.33,7.21-2.78,13.45,3.4,18.44c6.61,5.34,14.59,7.27,22.79,8.38&#xA;&#x9;c5.81,0.79,11.64,0.84,17.51,0.53c9.61-0.51,18.94-2.38,28.01-5.45c6.54-2.22,12.77-5.18,18.35-9.34c3.67-2.74,7.02-5.8,9.18-9.94&#xA;&#x9;c3.03-5.79,2.39-10.68-1.86-15.54c-2.36-2.7-5.32-4.45-8.49-5.92c-4.55-2.11-9.34-3.53-14.29-4.11c-5.05-0.6-10.16-0.87-15.25-1&#xA;&#x9;C140.97,53.23,137.59,53.65,134.22,53.85z M168.06,79.65c1.29-1.76,2.08-3.48,2.04-5.52c-0.06-3.26-1.95-5.41-4.43-7.13&#xA;&#x9;c-4.14-2.86-8.92-3.99-13.79-4.8c-1.26-0.21-2.54-0.3-3.81-0.44C156.2,66.09,163.29,71.43,168.06,79.65z M98.62,77.59&#xA;&#x9;c-0.15-0.07-0.31-0.14-0.46-0.21c-0.56,1.6-1.39,3.15-1.63,4.8c-0.52,3.59,1.5,6.04,4.25,7.95c4.06,2.82,8.73,3.98,13.52,4.77&#xA;&#x9;c1.28,0.21,2.57,0.32,4.04,0.5c-1.33-3.14-0.25-5.96,0.21-8.98c-1.14,0.24-2.14,0.38-3.11,0.65c-4.13,1.17-8.32,2.01-12.62,1.7&#xA;&#x9;c-1.1-0.08-2.43-0.66-3.14-1.46c-0.69-0.78-0.94-2.13-1.02-3.25C98.52,81.92,98.62,79.75,98.62,77.59z M135.12,63.54&#xA;&#x9;c13.18,0.58,21.68,8.05,28.8,18c1.45-0.72,1.64-1.24,0.72-2.61c-0.47-0.7-0.95-1.41-1.48-2.07c-4.09-5.11-9.18-8.96-15.01-11.85&#xA;&#x9;c-3.09-1.53-6.34-2.74-9.88-2.41C137.19,62.7,136.16,63.22,135.12,63.54z M111.55,54.08c0.34-0.05,0.69-0.13,1.03-0.15&#xA;&#x9;c2.26-0.12,4.59-0.64,6.78-0.27c5.42,0.91,10.44,3.02,14.99,6.14c1.23,0.84,2.27,0.76,3.61-0.05c-6.21-4.19-12.66-7.33-20.07-7.87&#xA;&#x9;C115.61,51.71,113.18,51.79,111.55,54.08z M165.76,81.52c-2.5,0.87-1.28,2.92-1.78,4.52C166.46,85.03,166.92,83.79,165.76,81.52z"></path>
<path class="st0" d="M114.05,196.16c-0.43-5.39,3.04-13.41,9.91-20.11c1.34-1.3,3.05-1.88,4.63-1.04c1.59,0.84,1.75,2.58,1.24,4.31&#xA;&#x9;c-2.59,8.86,2.95,15.95,8.81,18.32c9.31,3.77,19.48-2.24,20.8-12.35c0.48-3.7-0.62-6.95-2.43-10.07c-0.32-0.54-0.65-1.11-0.8-1.71&#xA;&#x9;c-0.65-2.46,1.09-4.49,3.47-3.7c2.29,0.76,4.52,1.97,6.49,3.37c16.19,11.5,16.4,35.13,0.74,47.42c-11.9,9.34-29.21,9.72-40.91,0.74&#xA;&#x9;C119.16,216.08,115.21,209.14,114.05,196.16z M118.82,193.59c-2.37,3.13-1.11,10.76,1.21,15.27c5.37,10.46,14.34,15.55,25.86,15.71&#xA;&#x9;c8.22,0.11,15.54-2.79,21.61-9.11c-0.56-0.02-0.72-0.08-0.81-0.02c-0.29,0.19-0.56,0.42-0.83,0.65c-3.9,3.3-8.53,5.36-13.42,6.16&#xA;&#x9;c-6.06,0.99-12.19,0.49-17.95-2.15c-6.44-2.95-11.22-7.47-14.02-14.05C118.79,202.17,118.11,198.16,118.82,193.59z"></path>
</svg>