<?xml version="1.0" encoding="utf-8"?>

<svg version="1.1" id="Layer_1" xmlns="http://www.w3.org/2000/svg" xmlns:xlink="http://www.w3.org/1999/xlink" x="0px" y="0px" viewBox="0 0 276 276" style="enable-background:new 0 0 276 276;" xml:space="preserve">

<g>
&#x9;<path class="st5" d="M57.06,225.94l-3.19-33.39l20.21-1.93l0.43,4.53l-15.37,1.47l0.95,9.97l14.18-1.36l0.44,4.57l-14.09,1.35&#xA;&#x9;&#x9;L62,225.47L57.06,225.94z"></path>
&#x9;<path class="st5" d="M85.28,223.24l-3.19-33.39l10.43-1c2.07-0.2,3.93,0.03,5.58,0.69c1.65,0.66,2.98,1.68,3.99,3.06&#xA;&#x9;&#x9;c1.01,1.38,1.61,3.06,1.8,5.04c0.21,2.23-0.17,4.21-1.14,5.97c-0.97,1.75-2.37,3.06-4.2,3.91l8.05,13.68l-5.4,0.52l-7.53-13.13&#xA;&#x9;&#x9;l-4.8,0.46l1.31,13.72L85.28,223.24z M88.44,204.66l5.53-0.53c1.65-0.16,2.91-0.77,3.79-1.84c0.88-1.07,1.25-2.43,1.09-4.07&#xA;&#x9;&#x9;c-0.16-1.68-0.78-2.96-1.87-3.86c-1.09-0.9-2.44-1.27-4.05-1.11l-5.53,0.53L88.44,204.66z"></path>
&#x9;<path class="st5" d="M111.71,220.71l5.31-34.2l6.49-0.62l11.75,32.57l-5.03,0.48l-2.82-8.27l-9.47,0.91l-1.2,8.65L111.71,220.71z&#xA;&#x9;&#x9; M118.47,207.37l7.59-0.73l-3.21-9.38c-0.56-1.67-1.03-3.12-1.41-4.34c-0.38-1.22-0.64-2.08-0.77-2.56&#xA;&#x9;&#x9;c-0.04,0.5-0.13,1.38-0.25,2.66c-0.12,1.27-0.32,2.77-0.58,4.49L118.47,207.37z"></path>
&#x9;<path class="st5" d="M141.81,217.83l-3.19-33.39l6.27-0.6l12.35,26.83c-0.14-0.85-0.32-1.88-0.53-3.09&#xA;&#x9;&#x9;c-0.21-1.21-0.4-2.47-0.57-3.78c-0.17-1.31-0.31-2.51-0.41-3.61l-1.65-17.24l4.57-0.44l3.19,33.39l-6.22,0.59l-12.35-26.83&#xA;&#x9;&#x9;c0.14,0.82,0.3,1.81,0.49,2.98c0.19,1.17,0.37,2.39,0.56,3.66c0.18,1.27,0.33,2.46,0.43,3.56l1.68,17.52L141.81,217.83z"></path>
&#x9;<path class="st5" d="M180.59,214.58c-3.14,0.3-5.72-0.34-7.73-1.91c-2.01-1.58-3.16-3.86-3.45-6.85L167.99,191&#xA;&#x9;&#x9;c-0.29-3.02,0.4-5.48,2.08-7.4c1.68-1.92,4.09-3.02,7.23-3.32c3.11-0.3,5.67,0.34,7.68,1.92c2.01,1.58,3.16,3.86,3.45,6.85&#xA;&#x9;&#x9;l-4.94,0.47c-0.17-1.74-0.76-3.02-1.78-3.85c-1.02-0.83-2.35-1.16-4-1c-1.68,0.16-2.94,0.74-3.78,1.75c-0.84,1-1.18,2.37-1.01,4.11&#xA;&#x9;&#x9;l1.42,14.82c0.17,1.74,0.76,3.02,1.78,3.84c1.02,0.83,2.36,1.16,4.04,1c1.65-0.16,2.89-0.74,3.73-1.74c0.84-1,1.18-2.37,1.01-4.11&#xA;&#x9;&#x9;l4.94-0.47c0.29,2.99-0.41,5.45-2.09,7.38C186.09,213.17,183.7,214.28,180.59,214.58z"></path>
&#x9;<path class="st5" d="M199.11,212.35l-3.19-33.39l19.62-1.88l0.42,4.39l-14.77,1.41l0.91,9.51l13.17-1.26l0.41,4.25l-13.17,1.26&#xA;&#x9;&#x9;l1.04,10.84l14.77-1.41l0.42,4.39L199.11,212.35z"></path>
</g>
<path class="st6" d="M83.86,32.12L8.01,210.71c-11.68,27.51,10.29,57.51,40.05,54.66l187.42-17.93c30-2.87,45.82-36.98,28.63-61.74&#xA;&#x9;L152.53,25.05C134.84-0.44,95.99,3.56,83.86,32.12z"></path>
<path class="st7" d="M90.83,40.44L21.3,210.73c-9.74,25.05,11.41,45.34,36.64,42.93l163.86-15.68&#xA;&#x9;c25.44-2.43,44.57-24.01,29.83-46.73L149.04,34.41C133.87,11.02,100.94,14.43,90.83,40.44z"></path>
<path class="st5" d="M151.93,141.89L151.93,141.89c-0.29-0.52-0.57-1.04-0.86-1.57l0,0c-1.27-2.33-2.58-4.8-3.9-7.42l1.42-0.14&#xA;&#x9;l-2-6.37l-2.5,0.24c-2.16-4.54-4.32-9.42-6.42-14.6l-0.34-0.86l1.07-0.1l-0.55-5.77l1.17-0.11l-0.28-2.97l-4.66,0.45&#xA;&#x9;c-4.86-13.46-9.06-28.58-11.47-44.81l1.35-0.13l-0.48-5.05l-0.68,0.06l-0.64-2.26l-1.93,0.19l-2.06-16.29l-1.07,0.1l1.07,16.39&#xA;&#x9;l-1.93,0.19l-0.2,2.34l-0.68,0.06l0.48,5.05l1.35-0.13c0.71,16.39-0.54,32.03-2.77,46.17l-4.66,0.45l0.28,2.97l1.17-0.11l0.55,5.77&#xA;&#x9;l1.08-0.1c-0.05,0.28-0.11,0.57-0.16,0.85c-1.08,5.5-2.29,10.72-3.55,15.61l-2.5,0.24l-0.75,6.63l1.42-0.14&#xA;&#x9;c-0.8,2.82-1.62,5.5-2.42,8.03c-0.18,0.58-0.37,1.14-0.55,1.7l0,0c-5.1,15.62-9.74,25.03-9.74,25.03l15.41-1.47&#xA;&#x9;c2.48-12.11,9.43-20.98,18.37-21.83c0.03,0,0.05,0,0.08-0.01l0,0c0.02,0,0.04,0,0.06-0.01c0.02,0,0.04,0,0.06,0l0,0&#xA;&#x9;c0.03,0,0.05-0.01,0.08-0.01c8.95-0.86,17.45,6.54,22.18,17.95l15.41-1.47C166.24,164.61,159.9,156.26,151.93,141.89z M121.48,74.86&#xA;&#x9;c-0.01-0.2-0.02-0.4-0.03-0.6c0.03,0.2,0.05,0.39,0.08,0.59c1.35,10.09,3.45,19.97,5.58,28.48l-5.71,0.55&#xA;&#x9;C121.88,95.12,122.07,85.02,121.48,74.86z M120.79,112.76l8.6-0.82c0.08,0.3,0.17,0.59,0.25,0.88l0,0&#xA;&#x9;c1.97,6.98,3.71,12.25,4.56,14.76l-15.16,1.45C119.41,126.3,120.16,120.44,120.79,112.76z"></path>
</svg>