<?xml version="1.0" encoding="utf-8"?>

<svg version="1.1" id="Layer_1" xmlns="http://www.w3.org/2000/svg" xmlns:xlink="http://www.w3.org/1999/xlink" x="0px" y="0px" viewBox="0 0 100 100" style="enable-background:new 0 0 100 100;" xml:space="preserve">

<path class="st0" d="M67.34,30.87c3.73,8.59-1.26,18.89-9.56,22.52c-8.35,3.66-18.39,0.27-22.86-7.66&#xA;&#x9;c-2.56-4.54-3.19-10.43-0.92-15.21"></path>
<path class="st0" d="M36.09,21.49c0-8.01,6.49-14.5,14.5-14.5s14.5,6.49,14.5,14.5"></path>
<rect x="46.11" y="55.03" class="st0" width="8.16" height="7.2"></rect>
<path class="st1" d="M28.99,91.77V74.08c0-6.54,5.3-11.85,11.85-11.85h19.51c6.54,0,11.85,5.3,11.85,11.85v17.69"></path>
<path class="st0" d="M29.31,70.76h-1.43c-3.46,0-6.27-2.81-6.27-6.27V53.45c0-3.46,2.81-6.27,6.27-6.27h7.71"></path>
<path class="st0" d="M64.7,47.18h8.6c3.46,0,6.27,2.81,6.27,6.27V64.5c0,3.46-2.81,6.27-6.27,6.27h-2.17"></path>
<g>
&#x9;<rect x="37.42" y="63.33" class="st2" width="6.6" height="28.44"></rect>
&#x9;<rect x="57.16" y="63.33" class="st2" width="6.6" height="28.44"></rect>
</g>
<path class="st0" d="M72.55,30.73H28.63c-2.55,0-4.62-2.07-4.62-4.62v0c0-2.55,2.07-4.62,4.62-4.62h43.92&#xA;&#x9;c2.55,0,4.62,2.07,4.62,4.62v0C77.17,28.66,75.1,30.73,72.55,30.73z"></path>
<circle class="st3" cx="74.43" cy="83.73" r="13.97"></circle>
<g>
&#x9;<path class="st4" d="M71.77,92.26v-6.04h-6.04v-4.97h6.04v-6.04h5.33v6.04h6.04v4.97h-6.04v6.04H71.77z"></path>
</g>
</svg>