<?xml version="1.0" encoding="utf-8"?>

<svg version="1.1" id="Layer_1" xmlns="http://www.w3.org/2000/svg" xmlns:xlink="http://www.w3.org/1999/xlink" x="0px" y="0px" viewBox="0 0 100 100" style="enable-background:new 0 0 100 100;" xml:space="preserve">

<g>
&#x9;<path class="st5" d="M65.93,30.51l6.06,60.74c0.15,1.52-0.33,2.99-1.36,4.13s-2.44,1.76-3.97,1.76H33.41&#xA;&#x9;&#x9;c-1.53,0-2.94-0.63-3.97-1.76c-1.03-1.14-1.51-2.6-1.36-4.13l6.06-60.74H65.93 M68.64,27.51H31.42l-6.33,63.44&#xA;&#x9;&#x9;c-0.49,4.92,3.37,9.18,8.31,9.18h33.25c4.94,0,8.8-4.27,8.31-9.18L68.64,27.51L68.64,27.51z"></path>
</g>
<g>
&#x9;<path class="st5" d="M70.65,23.72c0.75,0,1.36,0.61,1.36,1.36v0.31c0,0.75-0.61,1.36-1.36,1.36H29.41c-0.75,0-1.36-0.61-1.36-1.36&#xA;&#x9;&#x9;v-0.31c0-0.75,0.61-1.36,1.36-1.36H70.65 M70.65,20.72H29.41c-2.41,0-4.36,1.95-4.36,4.36v0.31c0,2.41,1.95,4.36,4.36,4.36h41.24&#xA;&#x9;&#x9;c2.41,0,4.36-1.95,4.36-4.36v-0.31C75.02,22.67,73.06,20.72,70.65,20.72L70.65,20.72z"></path>
</g>
<g>
&#x9;<path class="st5" d="M62.59,3c2.49,0,4.52,2.03,4.52,4.52v7.38c0,2.49-2.03,4.52-4.52,4.52H37.48c-2.49,0-4.52-2.03-4.52-4.52V7.52&#xA;&#x9;&#x9;c0-2.49,2.03-4.52,4.52-4.52H62.59 M62.59,0H37.48c-4.16,0-7.52,3.37-7.52,7.52v7.38c0,4.16,3.37,7.52,7.52,7.52h25.11&#xA;&#x9;&#x9;c4.16,0,7.52-3.37,7.52-7.52V7.52C70.11,3.37,66.74,0,62.59,0L62.59,0z"></path>
</g>
<line class="st6" x1="29.95" y1="59.45" x2="70.11" y2="59.45"></line>
<line class="st6" x1="39.95" y1="36.24" x2="35.91" y2="85.65"></line>
<g>
&#x9;<path class="st5" d="M40.21,5.03c-3.24,0-3.24,5.03,0,5.03C43.44,10.06,43.45,5.03,40.21,5.03z"></path>
&#x9;<path class="st5" d="M50.03,5.03c-3.24,0-3.24,5.03,0,5.03C53.27,10.06,53.27,5.03,50.03,5.03z"></path>
&#x9;<path class="st5" d="M59.86,5.03c-3.24,0-3.24,5.03,0,5.03C63.1,10.06,63.1,5.03,59.86,5.03z"></path>
</g>
</svg>