<?xml version="1.0" encoding="utf-8"?>

<svg version="1.1" id="Layer_1" xmlns="http://www.w3.org/2000/svg" xmlns:xlink="http://www.w3.org/1999/xlink" x="0px" y="0px" viewBox="0 0 100 100" style="enable-background:new 0 0 100 100;" xml:space="preserve">

<g>
&#x9;<g>
&#x9;&#x9;<path class="st5" d="M49.24,14.98c3.9,0.02,7.74,2.67,9.13,6.31c0.45,1.17,1.56,1.93,2.8,1.93c0.05,0,0.09,0,0.14,0&#xA;&#x9;&#x9;&#x9;c0.13-0.01,0.26-0.01,0.38-0.01c4.31,0,8.56,3.4,9.46,7.57c0.14,0.63,0.2,1.3,0.19,1.97c-0.07,3.67-2.37,7.28-5.56,8.8H49.17&#xA;&#x9;&#x9;&#x9;H32.55c-2.68-1.26-4.77-3.86-5.38-6.76c-0.1-0.46-0.16-0.93-0.18-1.41c-0.14-2.67,0.88-5.41,2.72-7.33&#xA;&#x9;&#x9;&#x9;c0.88-0.92,2.05-1.68,3.36-2.19c0.65-0.25,1.33-0.44,2.01-0.55c0.32-0.05,0.63-0.09,0.95-0.11l0.24,0c0.21,0,0.45,0.01,0.64,0.01&#xA;&#x9;&#x9;&#x9;c2.07,0,2.84-1.21,3.12-1.94c1.4-3.63,5.24-6.28,9.14-6.29C49.19,14.98,49.22,14.98,49.24,14.98 M49.22,11.98&#xA;&#x9;&#x9;&#x9;c-0.02,0-0.03,0-0.05,0C44.04,12,39.08,15.41,37.24,20.2c0,0.01-0.14,0.02-0.32,0.02c-0.31,0-0.76-0.01-0.92-0.01&#xA;&#x9;&#x9;&#x9;c-0.03,0-0.04,0-0.06,0c-0.45,0.03-0.9,0.08-1.35,0.15c-0.89,0.15-1.77,0.39-2.61,0.72c-1.65,0.65-3.2,1.63-4.43,2.91&#xA;&#x9;&#x9;&#x9;c-2.43,2.53-3.73,6.05-3.55,9.56c0.03,0.63,0.11,1.25,0.24,1.87c0.86,4.06,3.84,7.6,7.69,9.14h17.24h17.28&#xA;&#x9;&#x9;&#x9;c0-0.01,0.01-0.01,0.01-0.02c4.65-1.86,7.81-6.76,7.9-11.73c0.02-0.89-0.07-1.79-0.26-2.66c-1.22-5.6-6.69-9.94-12.4-9.94&#xA;&#x9;&#x9;&#x9;c-0.17,0-0.35,0-0.52,0.01C59.34,15.42,54.37,11.99,49.22,11.98L49.22,11.98z"></path>
&#x9;</g>
&#x9;<g>
&#x9;&#x9;<path class="st5" d="M63.48,44.97l0,0.29l0,0.81c0,0.65,0,1.31,0.01,1.96c0,0.26,0.01,0.88-0.03,1.01&#xA;&#x9;&#x9;&#x9;c-0.01,0.02-0.15,0.19-0.74,0.5c-1.39,0.74-3.06,1.26-5.42,1.7c-2.66,0.49-5.38,0.74-8.14,0.74c-2.69,0-5.39-0.25-8.02-0.73&#xA;&#x9;&#x9;&#x9;c-2.37-0.44-4.06-0.96-5.45-1.7c-0.49-0.26-0.67-0.42-0.73-0.48c-0.05-0.21-0.05-0.73-0.05-1.02l0.01-3.04l0-0.05h14.24H63.48&#xA;&#x9;&#x9;&#x9; M66.47,41.97h-17.3H31.94c-0.01,2.03-0.01,4.05-0.02,6.08c0,0.81,0,1.66,0.37,2.38c0.41,0.81,1.2,1.35,2.01,1.78&#xA;&#x9;&#x9;&#x9;c1.96,1.04,4.13,1.6,6.31,2c2.82,0.52,5.69,0.78,8.56,0.78c0.01,0,0.02,0,0.04,0c2.9,0,5.8-0.26,8.65-0.79&#xA;&#x9;&#x9;&#x9;c2.17-0.4,4.33-0.96,6.28-2c0.8-0.43,1.59-0.97,2-1.78c0.38-0.75,0.38-1.61,0.37-2.44c-0.01-0.91-0.01-1.83-0.01-2.74&#xA;&#x9;&#x9;&#x9;c0-0.96-0.01-1.92-0.01-2.89C66.47,42.23,66.47,42.1,66.47,41.97L66.47,41.97z"></path>
&#x9;</g>
</g>
<path class="st2" d="M76.2,98.24H22.14c-5.66,0-10.25-4.59-10.25-10.25V12.56c0-5.66,4.59-10.25,10.25-10.25H76.2&#xA;&#x9;c5.66,0,10.25,4.59,10.25,10.25v75.42C86.45,93.65,81.86,98.24,76.2,98.24z"></path>
<line class="st6" x1="20.33" y1="65.47" x2="78.01" y2="65.47"></line>
<line class="st6" x1="20.33" y1="75.47" x2="78.01" y2="76.47"></line>
<line class="st6" x1="20.33" y1="86.47" x2="78.01" y2="87.47"></line>
</svg>