<?xml version="1.0" encoding="utf-8"?>

<svg version="1.1" id="Layer_1" xmlns="http://www.w3.org/2000/svg" xmlns:xlink="http://www.w3.org/1999/xlink" x="0px" y="0px" viewBox="0 0 100 100" style="enable-background:new 0 0 100 100;" xml:space="preserve">

<path class="st2" d="M2.26,87.83V45.11c0-5.66,4.59-10.25,10.25-10.25h75.42c5.66,0,10.25,4.59,10.25,10.25v42.72&#xA;&#x9;c0,5.66-4.59,10.25-10.25,10.25H12.51C6.84,98.08,2.26,93.49,2.26,87.83z"></path>
<path class="st2" d="M29.7,70.26L26,57.22c-0.32-1.11,0.33-2.27,1.44-2.58l18.23-5.16c1.11-0.32,2.27,0.33,2.58,1.44l3.69,13.04&#xA;&#x9;c0.32,1.11-0.33,2.27-1.44,2.58l-18.23,5.16C31.17,72.02,30.01,71.38,29.7,70.26z"></path>
<g>
&#x9;<line class="st2" x1="24.72" y1="36.24" x2="24.72" y2="98.08"></line>
&#x9;<line class="st2" x1="74.72" y1="36.24" x2="75.72" y2="98.08"></line>
</g>
<path class="st6" d="M24.72,37.76V23.71v-5.08c0-4.09,8.06-7.41,18.01-7.41h13.99c9.94,0,18.01,3.32,18.01,7.41v4.45v14.69"></path>
<circle class="st6" cx="63.03" cy="85.5" r="10.08"></circle>
</svg>