<?xml version="1.0" encoding="utf-8"?>

<svg version="1.1" id="Layer_1" xmlns="http://www.w3.org/2000/svg" xmlns:xlink="http://www.w3.org/1999/xlink" x="0px" y="0px" viewBox="0 0 276 276" style="enable-background:new 0 0 276 276;" xml:space="preserve">

<g>
&#x9;<path class="st4" d="M40.96,137.25l0.42-6.54l9.82,0.62l2.27-35.66l-9.82-0.63l0.42-6.54l27.04,1.72l-0.42,6.54l-9.88-0.63&#xA;&#x9;&#x9;l-2.27,35.66l9.88,0.63l-0.42,6.54L40.96,137.25z"></path>
&#x9;<path class="st4" d="M92.25,140.52l2.69-42.2l-13.02-0.83l0.42-6.54l33.32,2.12l-0.42,6.54l-13.09-0.83l-2.69,42.2L92.25,140.52z"></path>
&#x9;<path class="st4" d="M120.09,142.3l15.53-47.96l9.48,0.6l9.38,49.54l-7.35-0.47l-2.15-12.54l-13.82-0.88l-3.72,12.17L120.09,142.3z&#xA;&#x9;&#x9; M132.88,124.67l11.08,0.71l-2.44-14.24c-0.42-2.53-0.76-4.72-1.02-6.57c-0.26-1.85-0.44-3.13-0.53-3.86&#xA;&#x9;&#x9;c-0.18,0.71-0.51,1.96-0.98,3.76c-0.47,1.8-1.1,3.91-1.88,6.32L132.88,124.67z"></path>
&#x9;<path class="st4" d="M167.04,145.29l3.11-48.75l7.21,0.46l-2.69,42.2l21.3,1.36l-0.42,6.54L167.04,145.29z"></path>
&#x9;<path class="st4" d="M216.45,148.44l1.14-17.96l-12.53-31.71l7.61,0.49l7.31,18.97c0.5,1.24,0.9,2.4,1.18,3.5&#xA;&#x9;&#x9;c0.29,1.09,0.48,1.91,0.58,2.45c0.17-0.53,0.46-1.31,0.89-2.36c0.42-1.05,0.94-2.15,1.55-3.32l9.59-17.89l7.48,0.48l-16.45,29.86&#xA;&#x9;&#x9;l-1.14,17.96L216.45,148.44z"></path>
</g>
<path class="st8" d="M220.52,270.72L40.39,259.24c-20.39-1.3-35.86-18.88-34.56-39.27L17.31,39.84C18.61,19.45,36.2,3.98,56.59,5.28&#xA;&#x9;l180.13,11.48c20.39,1.3,35.86,18.88,34.56,39.27l-11.48,180.13C258.49,256.55,240.91,272.02,220.52,270.72z"></path>
<path class="st9" d="M222.68,260L39.62,248.33c-13.61-0.87-23.94-12.6-23.07-26.21L28.22,39.06C29.09,25.46,40.82,15.13,54.43,16&#xA;&#x9;l183.06,11.67c13.61,0.87,23.94,12.6,23.07,26.21l-11.67,183.06C248.02,250.54,236.29,260.87,222.68,260z"></path>
<path class="st4" d="M202.24,240.41c0.05-0.81,0.09-1.63,0.14-2.47c0.29-5.48,0.56-11.3,0.73-15.39c0.14-3.26,0.22-5.42,0.22-5.42&#xA;&#x9;c-7.58-12.14-61.49-16.55-61.49-16.55l-0.16,2.58l-0.1,1.54l-12.19-0.78l-3.24-3.64l-4.17-0.27l-6.59-0.33l-1.9-11.19l0.55-8.59&#xA;&#x9;l-2.54-3.29c0,0-1.24-0.16-2.62-0.33l-2.65-7.63l-1.7-4.11l-4.9-2.67c-30.89,6.19-34.04,19.1-34.04,19.1l-0.96,15.08l-1.07,16.75&#xA;&#x9;l-1.01,15.87l-0.76,11.89l4.64,0.3l0.38-5.98c0.11-1.74,1.3-3.09,2.64-3c1.34,0.09,2.35,1.58,2.23,3.31l-0.38,5.98l7.85,0.5&#xA;&#x9;l0.41-6.44c0.12-1.87,1.48-3.32,3.02-3.22c1.54,0.1,2.71,1.71,2.59,3.58l-0.41,6.44l7.11,0.45l0.44-6.9c0.13-2,1.66-3.55,3.41-3.43&#xA;&#x9;c1.75,0.11,3.07,1.84,2.94,3.84l-0.44,6.9l6.37,0.41l0.47-7.35c0.14-2.13,1.84-3.77,3.79-3.65c1.95,0.12,3.44,1.97,3.3,4.1&#xA;&#x9;l-0.47,7.35l5.63,0.36l0.5-7.81c0.14-2.26,2.03-4,4.18-3.86c2.15,0.14,3.8,2.1,3.66,4.36l-0.5,7.81l2.61,0.17l3.98,0.25l0.53-8.27&#xA;&#x9;c0.15-2.39,2.38-4.22,4.96-4.05c2.58,0.16,4.56,2.26,4.4,4.65l-0.53,8.27l3.2,0.2l3.34,0.21l0.5-7.89c0.14-2.26,1.85-4.01,3.79-3.89&#xA;&#x9;c1.94,0.12,3.41,2.08,3.26,4.34l-0.5,7.89l5.45,0.35l0.47-7.43c0.14-2.13,1.68-3.78,3.44-3.67c1.76,0.11,3.08,1.95,2.95,4.08&#xA;&#x9;l-0.47,7.43l6.12,0.39l0.44-6.97c0.13-2,1.52-3.55,3.09-3.45c1.57,0.1,2.76,1.82,2.63,3.82l-0.44,6.97l4.24,0.27l2.06,0.13&#xA;&#x9;l0.42-6.51c0.12-1.87,1.35-3.33,2.74-3.24s2.43,1.69,2.31,3.56l-0.42,6.51l6.39,0.41l0.39-6.05c0.11-1.74,1.19-3.1,2.39-3.02&#xA;&#x9;c1.21,0.08,2.1,1.56,1.99,3.3l-0.39,6.05l1.14,0.07c0.02-0.18,0.03-0.36,0.05-0.55c0.02-0.19,0.03-0.38,0.05-0.58&#xA;&#x9;c0.03-0.4,0.06-0.82,0.09-1.25c0.03-0.43,0.06-0.89,0.09-1.35C202.02,244.1,202.13,242.3,202.24,240.41z M68.5,182.77l3.77-2.53&#xA;&#x9;l-0.25,3.92l-3.77,2.53L68.5,182.77z M71.44,224.87l-4.92,0.47l0.39-6.05c0.11-1.74,1.3-3.09,2.64-3c1.34,0.09,2.35,1.58,2.23,3.31&#xA;&#x9;L71.44,224.87z M72.69,205.22l-4.93,0.54l0.39-6.05c0.11-1.74,1.3-3.09,2.64-3c1.34,0.09,2.35,1.58,2.23,3.31L72.69,205.22z&#xA;&#x9; M81.19,176.47l3.52-1.64l-0.25,3.92l-3.52,1.64L81.19,176.47z M79.88,196.7c0.12-1.87,1.48-3.32,3.02-3.22&#xA;&#x9;c1.54,0.1,2.71,1.71,2.59,3.58l-0.42,6.51l-5.66,0.41L79.88,196.7z M84.16,224.06l-5.67,0.5l0.42-6.51&#xA;&#x9;c0.12-1.87,1.48-3.32,3.02-3.22c1.54,0.1,2.71,1.71,2.59,3.58L84.16,224.06z M95.33,171.04l3.49-1.24l0.21,3.78l-3.95,1.37&#xA;&#x9;L95.33,171.04z M97.67,224.05l-6.39,0.1l0.44-6.97c0.13-2,1.66-3.55,3.41-3.43c1.75,0.11,3.07,1.84,2.94,3.84L97.67,224.05z&#xA;&#x9; M99.05,202.44l-6.4,0.27l0.52-8.09c0.13-2,1.66-3.55,3.41-3.43c1.75,0.11,3.07,1.84,2.94,3.84L99.05,202.44z M112,224.67&#xA;&#x9;l-7.09-0.45l0.47-7.43c0.14-2.13,1.84-3.77,3.79-3.65c1.95,0.12,3.44,1.97,3.3,4.1L112,224.67z M125.46,225.53l-7.83-0.5l0.5-7.89&#xA;&#x9;c0.14-2.26,2.03-4,4.18-3.86c2.15,0.14,3.8,2.1,3.66,4.36L125.46,225.53z M143.15,226.66l-9.36-0.6l0.53-8.34&#xA;&#x9;c0.15-2.39,2.38-4.22,4.96-4.05c2.58,0.16,4.56,2.26,4.4,4.65L143.15,226.66z M157.61,228.6l-7.8-1.05l0.5-7.89&#xA;&#x9;c0.14-2.26,2.03-4,4.18-3.86c2.15,0.14,3.8,2.1,3.66,4.36L157.61,228.6z M161.23,210.96l-3.37-0.49l0.25-3.92l3.37,0.49&#xA;&#x9;L161.23,210.96z M169.47,230.09l-7.06-1.05l0.47-7.43c0.14-2.13,1.84-3.77,3.79-3.65c1.95,0.12,3.44,1.97,3.3,4.1L169.47,230.09z&#xA;&#x9; M173.25,212.96l-3.36-0.64l0.24-3.79l3.35,0.77L173.25,212.96z M180.89,231.54l-6.3-1.23l0.44-6.97c0.13-2,1.66-3.55,3.41-3.43&#xA;&#x9;c1.75,0.11,3.07,1.84,2.94,3.84L180.89,231.54z M182.89,215.73l0.25-3.92l3.51,1.04l-0.25,3.92L182.89,215.73z M190.99,233.28&#xA;&#x9;l-5.56-1.14l0.37-5.73c0.12-1.87,1.48-3.32,3.02-3.22c1.54,0.1,2.71,1.71,2.59,3.58L190.99,233.28z M194.98,215.45l3.19,1.31&#xA;&#x9;l-0.25,3.92l-3.19-1.31L194.98,215.45z M200.75,234.95l-4.83-1.05l0.34-5.32c0.11-1.74,1.3-3.09,2.64-3&#xA;&#x9;c1.34,0.09,2.35,1.58,2.23,3.31L200.75,234.95z"></path>
</svg>