<?xml version="1.0" encoding="utf-8"?>

<svg version="1.1" id="Layer_1" xmlns="http://www.w3.org/2000/svg" xmlns:xlink="http://www.w3.org/1999/xlink" x="0px" y="0px" viewBox="0 0 276 276" style="enable-background:new 0 0 276 276;" xml:space="preserve">

<g>
&#x9;<path class="st3" d="M74.06,141.98c-3.61-0.46-6.31-1.82-8.13-4.09c-1.82-2.27-2.5-5.12-2.07-8.56l5.41,0.69&#xA;&#x9;&#x9;c-0.25,2,0.09,3.64,1.03,4.92s2.4,2.04,4.37,2.29c1.94,0.25,3.54-0.12,4.79-1.09c1.26-0.98,2.02-2.48,2.28-4.52l3.3-25.89&#xA;&#x9;&#x9;l5.41,0.69l-3.3,25.89c-0.44,3.44-1.83,6.03-4.17,7.76C80.64,141.8,77.66,142.44,74.06,141.98z"></path>
&#x9;<path class="st3" d="M93.8,143.99l13.97-35.37l7.11,0.91l4.71,37.75l-5.51-0.7l-1.02-9.54l-10.37-1.32l-3.38,8.98L93.8,143.99z&#xA;&#x9;&#x9; M104.27,131.33l8.31,1.06l-1.17-10.83c-0.2-1.92-0.35-3.59-0.46-4.99c-0.11-1.41-0.18-2.38-0.21-2.93&#xA;&#x9;&#x9;c-0.17,0.52-0.47,1.45-0.92,2.79c-0.44,1.33-1.01,2.89-1.71,4.67L104.27,131.33z"></path>
&#x9;<path class="st3" d="M126.9,148.2l4.65-36.56l11.97,1.52c2.37,0.3,4.38,1.02,6.01,2.14c1.64,1.12,2.83,2.57,3.57,4.35&#xA;&#x9;&#x9;c0.74,1.77,0.97,3.78,0.69,6.01c-0.28,2.24-1.02,4.12-2.19,5.65c-1.18,1.53-2.69,2.63-4.55,3.31c-1.85,0.68-3.96,0.87-6.33,0.57&#xA;&#x9;&#x9;l-6.56-0.83l-1.85,14.52L126.9,148.2z M134.77,129.56l6.56,0.83c1.87,0.24,3.44-0.14,4.7-1.13c1.26-0.99,2.01-2.42,2.25-4.29&#xA;&#x9;&#x9;c0.24-1.87-0.13-3.44-1.1-4.72c-0.97-1.28-2.4-2.04-4.27-2.27l-6.56-0.84L134.77,129.56z"></path>
&#x9;<path class="st3" d="M155.9,151.89l13.97-35.37l7.11,0.91l4.71,37.75l-5.51-0.7l-1.02-9.54l-10.37-1.32l-3.38,8.98L155.9,151.89z&#xA;&#x9;&#x9; M166.37,139.23l8.31,1.06l-1.17-10.83c-0.2-1.93-0.35-3.59-0.46-5s-0.18-2.38-0.21-2.93c-0.17,0.52-0.47,1.45-0.92,2.78&#xA;&#x9;&#x9;s-1.01,2.89-1.71,4.67L166.37,139.23z"></path>
&#x9;<path class="st3" d="M188.85,156.09l4.65-36.56l6.86,0.87l6.75,31.75c0.05-0.94,0.11-2.09,0.18-3.44c0.07-1.35,0.17-2.74,0.3-4.19&#xA;&#x9;&#x9;c0.13-1.44,0.28-2.76,0.43-3.97l2.4-18.88l5.01,0.64l-4.65,36.56l-6.81-0.87l-6.75-31.75c-0.05,0.91-0.11,2.01-0.19,3.31&#xA;&#x9;&#x9;c-0.08,1.3-0.18,2.65-0.29,4.06c-0.11,1.41-0.24,2.72-0.4,3.92l-2.44,19.18L188.85,156.09z"></path>
</g>
<path class="st12" d="M247.9,204.59l13.23-103.95c1.13-8.86-2.56-17.65-9.66-23.05l-83.4-63.44c-7.11-5.41-16.56-6.61-24.8-3.16&#xA;&#x9;L46.63,51.51c-8.24,3.45-14,11.04-15.13,19.9L18.27,175.36c-1.13,8.86,2.56,17.65,9.66,23.05l83.4,63.44&#xA;&#x9;c7.11,5.41,16.56,6.61,24.8,3.16l96.64-40.51C241.01,221.03,246.78,213.45,247.9,204.59z"></path>
<path class="st13" d="M235.29,195l11.23-88.23c1.13-8.86-2.56-17.65-9.66-23.05l-70.79-53.84c-7.11-5.41-16.56-6.61-24.8-3.16&#xA;&#x9;L59.25,61.11c-8.24,3.45-14,11.04-15.13,19.9l-11.23,88.23c-1.13,8.86,2.56,17.65,9.66,23.05l70.79,53.84&#xA;&#x9;c7.11,5.41,16.56,6.61,24.8,3.16l82.02-34.39C228.39,211.44,234.16,203.86,235.29,195z"></path>
<path class="st3" d="M187.61,173.76c-4.71,3.43-32.24,1.86-47.36,0.72c-3.43-0.26-6.85-0.69-10.23-1.3&#xA;&#x9;c-14.92-2.68-41.97-8.06-45.66-12.57l3.33,13.25l3.88,0.49l-0.31,2.4l11.69,1.49l-0.8,6.3l-2.14-0.27l-0.34,2.7l-6.57-0.84&#xA;&#x9;l-0.69,5.43l8.71,1.11l-7.27,57.14l7.16,0.91l7.27-57.14l47.9,6.1l-7.27,57.14l7.16,0.91l7.27-57.14l8.71,1.11l0.69-5.43l-6.57-0.84&#xA;&#x9;l0.34-2.7l-2.14-0.27l0.8-6.3l11.69,1.49l0.31-2.4l3.88,0.49L187.61,173.76z M157.22,191.56l-2.14-0.27l-0.34,2.7l-43.62-5.55&#xA;&#x9;l0.34-2.7l-2.14-0.27l0.8-6.3l47.9,6.1L157.22,191.56z"></path>
</svg>