<?xml version="1.0" encoding="utf-8"?>

<svg version="1.1" id="Layer_1" xmlns="http://www.w3.org/2000/svg" xmlns:xlink="http://www.w3.org/1999/xlink" x="0px" y="0px" viewBox="0 0 276 276" style="enable-background:new 0 0 276 276;" xml:space="preserve">

<g>
&#x9;<path class="st1" d="M60.73,166.7l0.71-22.27l4.1-0.91l10.06,19.89l-3.18,0.7l-2.45-5.06l-5.98,1.32l-0.09,5.62L60.73,166.7z&#xA;&#x9;&#x9; M64,157.64l4.79-1.06l-2.79-5.75c-0.49-1.02-0.9-1.91-1.24-2.66s-0.57-1.28-0.7-1.57c0.01,0.32,0.03,0.89,0.05,1.72&#xA;&#x9;&#x9;c0.02,0.82,0.01,1.8-0.02,2.91L64,157.64z"></path>
&#x9;<path class="st1" d="M86.12,161.39c-2.02,0.45-3.7,0.24-5.05-0.63c-1.34-0.86-2.22-2.25-2.65-4.16l-3.36-15.2l3.12-0.69l3.35,15.17&#xA;&#x9;&#x9;c0.24,1.08,0.69,1.87,1.37,2.36c0.67,0.5,1.54,0.63,2.6,0.39s1.79-0.72,2.19-1.45c0.4-0.74,0.48-1.64,0.25-2.72l-3.35-15.17&#xA;&#x9;&#x9;l3.12-0.69l3.36,15.2c0.43,1.93,0.21,3.56-0.65,4.9S88.15,160.94,86.12,161.39z"></path>
&#x9;<path class="st1" d="M104.12,157.41c-2.08,0.46-3.87,0.28-5.36-0.54c-1.49-0.82-2.45-2.18-2.87-4.09l3.06-0.68&#xA;&#x9;&#x9;c0.23,1.06,0.77,1.82,1.59,2.27s1.82,0.55,2.97,0.3c1.14-0.25,1.96-0.76,2.48-1.52c0.52-0.76,0.67-1.65,0.44-2.67&#xA;&#x9;&#x9;c-0.17-0.77-0.53-1.4-1.08-1.88c-0.55-0.48-1.25-0.75-2.08-0.78l-3.21-0.14c-1.51-0.07-2.79-0.53-3.83-1.37&#xA;&#x9;&#x9;c-1.04-0.84-1.72-1.97-2.04-3.4c-0.25-1.16-0.22-2.22,0.1-3.19c0.32-0.97,0.9-1.8,1.74-2.49c0.84-0.69,1.88-1.17,3.13-1.45&#xA;&#x9;&#x9;c1.25-0.28,2.41-0.28,3.47-0.01c1.06,0.27,1.95,0.78,2.67,1.52c0.72,0.74,1.2,1.68,1.46,2.82l-3.06,0.68&#xA;&#x9;&#x9;c-0.2-0.91-0.66-1.56-1.39-1.98c-0.73-0.41-1.57-0.52-2.54-0.3c-0.96,0.21-1.68,0.66-2.14,1.34s-0.6,1.46-0.41,2.35&#xA;&#x9;&#x9;c0.16,0.71,0.49,1.27,0.99,1.66c0.5,0.39,1.13,0.61,1.88,0.64l3.31,0.15c1.55,0.06,2.87,0.56,3.96,1.49&#xA;&#x9;&#x9;c1.09,0.93,1.81,2.16,2.15,3.68c0.28,1.25,0.24,2.4-0.12,3.44c-0.36,1.04-0.98,1.92-1.87,2.64&#xA;&#x9;&#x9;C106.62,156.6,105.49,157.11,104.12,157.41z"></path>
&#x9;<path class="st1" d="M120.32,153.53l-4.03-18.26l-5.63,1.25l-0.62-2.83l14.42-3.18l0.62,2.83l-5.66,1.25l4.03,18.26L120.32,153.53z&#xA;&#x9;&#x9;"></path>
&#x9;<path class="st1" d="M133.58,150.6l-4.66-21.09l6.59-1.46c1.31-0.29,2.52-0.29,3.62,0c1.1,0.29,2.03,0.84,2.79,1.64&#xA;&#x9;&#x9;c0.75,0.8,1.27,1.83,1.54,3.08c0.31,1.41,0.22,2.71-0.26,3.9c-0.48,1.2-1.27,2.14-2.38,2.83l6.22,8.11l-3.41,0.75l-5.84-7.8&#xA;&#x9;&#x9;l-3.03,0.67l1.92,8.67L133.58,150.6z M134.14,138.47l3.49-0.77c1.04-0.23,1.8-0.72,2.28-1.47s0.61-1.65,0.38-2.69&#xA;&#x9;&#x9;c-0.23-1.06-0.73-1.83-1.5-2.32s-1.66-0.62-2.68-0.39l-3.49,0.77L134.14,138.47z"></path>
&#x9;<path class="st1" d="M150.28,146.91l0.71-22.28l4.1-0.91l10.06,19.89l-3.18,0.7l-2.45-5.06l-5.98,1.32l-0.09,5.62L150.28,146.91z&#xA;&#x9;&#x9; M153.55,137.85l4.8-1.06l-2.79-5.75c-0.49-1.02-0.9-1.91-1.24-2.67c-0.34-0.75-0.57-1.28-0.7-1.57c0.01,0.32,0.03,0.89,0.05,1.72&#xA;&#x9;&#x9;c0.02,0.82,0.01,1.79-0.02,2.91L153.55,137.85z"></path>
&#x9;<path class="st1" d="M170.58,142.42l-4.66-21.09l3.12-0.69l4.03,18.26l9.21-2.04l0.62,2.83L170.58,142.42z"></path>
&#x9;<path class="st1" d="M187.69,138.64l-0.62-2.83l4.25-0.94l-3.41-15.43l-4.25,0.94l-0.62-2.83l11.7-2.58l0.62,2.83l-4.28,0.94&#xA;&#x9;&#x9;l3.41,15.43l4.28-0.94l0.62,2.83L187.69,138.64z"></path>
&#x9;<path class="st1" d="M204.01,135.04l0.71-22.28l4.1-0.91l10.06,19.89l-3.18,0.7l-2.45-5.06l-5.98,1.32l-0.09,5.62L204.01,135.04z&#xA;&#x9;&#x9; M207.28,125.98l4.8-1.06l-2.79-5.75c-0.49-1.02-0.9-1.91-1.24-2.67c-0.34-0.75-0.57-1.28-0.7-1.57c0.01,0.32,0.03,0.89,0.05,1.72&#xA;&#x9;&#x9;c0.02,0.82,0.01,1.79-0.02,2.91L207.28,125.98z"></path>
</g>
<path class="st2" d="M156.58,223.22l2.76,3.45l0.42,0.15l4.22-0.88c0.35-0.07,0.63,0.3,0.46,0.62l-2.35,4.36l-0.01,0.38l1.98,4.21&#xA;&#x9;c0.15,0.33-0.15,0.68-0.49,0.59l-4.63-1.26l-0.37,0.07l-3.89,3c-0.29,0.22-0.7,0.01-0.68-0.36l0.23-4.51l-0.17-0.36l-3.95-2.95&#xA;&#x9;c-0.29-0.22-0.19-0.67,0.16-0.75l4.2-0.98l0.32-0.31l1.06-4.29C155.92,223.04,156.36,222.94,156.58,223.22z"></path>
<path class="st2" d="M89.01,80.67c0,0,10.88,6.94,11,7.04c0.12,0.1,1.41-0.66,1.41-0.66l-0.07-0.59l1.62,0.02l0.93-0.36l-0.44-2.56&#xA;&#x9;L98.49,80C98.49,80,91.64,79.52,89.01,80.67L89.01,80.67z"></path>
<path class="st2" d="M96.56,75.14l6.79,6.51c0,0,0.63-5.18,0.8-5.28C104.32,76.28,99.27,74.19,96.56,75.14z"></path>
<path class="st2" d="M104.01,70.07c-0.08,0.02,5.72,6.15,5.72,6.15l1.5-0.11l0.9-3.09C112.13,73.02,105.9,69.62,104.01,70.07&#xA;&#x9;L104.01,70.07z"></path>
<path class="st2" d="M131.89,73.89c0,0,11.79,6.2,12.05,7.63l0.57-0.28c0,0-1.29-9.12-3.54-11.42&#xA;&#x9;C140.98,69.82,135.36,68.66,131.89,73.89L131.89,73.89z"></path>
<path class="st2" d="M146.35,74.94l7.82,4.83c0,0,1.08-0.4,1-0.63l-0.08-0.23l2.92-0.55l1.61,1.42c0,0,1-0.22,1.07-0.02&#xA;&#x9;c0.08,0.2,0.08,0.08,0.08,0.08s0.14-7.7-0.31-8.01c0,0-6.84,1.04-8.44,3.67C152.02,75.49,147.84,74.36,146.35,74.94L146.35,74.94z"></path>
<path class="st2" d="M104.41,76.54l16.86,8.5c0,0,1.08,0.43,0.89-1.56c0,0,3.87,0,4.11,0.11l2.45,1.9c0,0-3.11-3.59-4.56-4.73&#xA;&#x9;c-1.46-1.14-7.66-3.54-9.1-4.04s-4.67-2.36-10.74-0.16"></path>
<path class="st2" d="M109.73,75.24l0.95-0.02c0,0,1.09-3.22,1.34-3.56c0.24-0.34,4.2,1.67,4.37,1.85c0.17,0.19,3.47,2.37,3.96,2.74&#xA;&#x9;s8.86,9,8.98,9.23c0.11,0.23-3.47-4.81-4.84-6.41c-1.37-1.6-5.1-4.45-5.34-4.65c-0.23-0.2-7.29-4.6-7.86-4.16&#xA;&#x9;S109.74,74.86,109.73,75.24L109.73,75.24z"></path>
<path class="st2" d="M120.21,71.68c0,0,7.52,4.23,8.49,5.26c0.97,1.03-6.04-7.45-6.79-7.41S120.15,71.48,120.21,71.68z"></path>
<path class="st2" d="M115.98,62.47c0,0,16.01,9.56,18.5,22.19l0.14,0.81l0.48,0.06c0,0-0.75-5.11-1.24-6.57&#xA;&#x9;c-0.49-1.45-2.66-5.37-3.13-5.94s-3.81-5.03-5.49-6.31S118.09,62.09,115.98,62.47L115.98,62.47z"></path>
<path class="st2" d="M116.4,65.36l1.05,0.49c0,0-1.24,4.93-0.9,5.62l-0.97-0.11C115.58,71.35,115.6,66.84,116.4,65.36L116.4,65.36z"></path>
<path class="st2" d="M118.28,67.02l0.89,0.57c0,0-0.96,4.03-0.96,4.28l-0.7-0.23C117.5,71.64,117.99,67.33,118.28,67.02&#xA;&#x9;L118.28,67.02z"></path>
<path class="st2" d="M105.24,86.05c0,0,1.47,1.2,1.9,1.29c0.43,0.09,9.01-2.69,9.22-2.86c0.21-0.17-3.53-0.77-4.06-0.88&#xA;&#x9;s-2.84,0.21-3.35-0.24s-0.42,0.12-0.42,0.12S105.5,86.06,105.24,86.05z"></path>
<path class="st2" d="M105.03,77.61c0,0,1.94,0.62,2.26,0.9c0.32,0.28,0.61,1.61,0.61,1.61s-2.32,4.25-2.41,5&#xA;&#x9;c-0.09,0.75-1.04,1.02-1.04,1.02S103.45,80.65,105.03,77.61z"></path>
<path class="st2" d="M103.92,86.38c0.13-0.01,1.53,1.47,1.72,1.74c0.19,0.28-6.01,0.89-6.25,0.81&#xA;&#x9;C99.15,88.86,101.32,86.51,103.92,86.38z"></path>
<path class="st2" d="M89.96,81.67c0,0,9.5,6.27,9.56,6.41c0.06,0.14-1.06,0.65-1.06,0.65s-0.29-1.3-0.67-1.44s-4.88-1.14-5.11-1.03&#xA;&#x9;C92.45,86.38,89.96,81.67,89.96,81.67z"></path>
<path class="st2" d="M92.55,86.67c0,0,4.33,0.53,4.59,0.82c0.25,0.29,0.49,0.78,0.49,0.78s-8.34,2.38-8.75,1.27&#xA;&#x9;c0,0,2.13-1.26,2.48-1.25C91.71,88.31,92.55,86.67,92.55,86.67z"></path>
<path class="st2" d="M135.25,85.06l0.12,0.39c0,0,8.68-2.58,8.83-2.93c0.14-0.35-1.73-2.18-1.73-2.18l-2.2,1.88&#xA;&#x9;c0,0-3.68-0.95-3.97-0.69c-0.29,0.25-1.08,3.42-1.05,3.49"></path>
<path class="st2" d="M100.77,90.9c0,0,15.7-1.51,16.13-1.98l0.22,0.84c0,0-15.52,2.45-16.22,2C100.9,91.76,100.77,90.9,100.77,90.9z&#xA;&#x9;"></path>
<path class="st2" d="M99.71,93.26c0,0,14.41-0.9,17.71-2.01l0.2,0.75c0,0-17.5,2.66-17.81,1.97L99.71,93.26z"></path>
<path class="st2" d="M98.72,96.24c-0.07-0.09-0.7,0.98-0.7,0.98s12.44-0.04,20.3-1.89l0.09-0.02l-0.22-1.12&#xA;&#x9;C118.19,94.18,99.33,96.99,98.72,96.24z"></path>
<path class="st2" d="M90,91.11l0.14,0.56l-0.63,0.14c0,0,1.05,0.59,6.56-0.15l-0.21-0.82C95.85,90.84,90.31,91.81,90,91.11z"></path>
<path class="st2" d="M153.65,94.08l-0.95,0.15l0.17-1.65l-0.2,0.08l-0.28,1.58l-1.65,0.27l-0.32-0.28l-1.05,0.14l-0.28-1.27l-0.16,0&#xA;&#x9;l0.17,1.2l-2.71,0.5l-2.2,0.36l-0.22-0.84l-3.77,0.42l-0.11-0.64l-0.21-0.08l-0.55-1.78l-0.22-0.01l0.45,2.05l-2.16,0.38l-0.53-2.54&#xA;&#x9;l-0.49,0.08l0.36,1.47l-0.67,0.12l-0.24-1.24l-0.46,0.07l0.59,3.83c0,0-1.81,0.27-2.02,1.05c0,0,18.23-1.81,18.49-1.93&#xA;&#x9;s1.59-1.43,1.59-1.43L153.65,94.08L153.65,94.08z M139.65,96.22l-0.33,0.07l-0.07-0.33l0.33-0.07L139.65,96.22z M140.64,96.1&#xA;&#x9;l-0.3,0.07l-0.07-0.3l0.3-0.07L140.64,96.1z M141.6,96.01l-0.27,0.06l-0.08-0.36l0.27-0.06L141.6,96.01z M142.53,95.9l-0.3,0.07&#xA;&#x9;l-0.08-0.36l0.3-0.07L142.53,95.9z"></path>
<path class="st2" d="M79.9,100.4c0,0,9.83,0.05,10.5-0.36c0.67-0.4,7.83-0.97,8.42-1.16s11.88-1.87,12.08-1.84&#xA;&#x9;c0.19,0.02,0.39,1.75,0.39,1.75s-30.74,5.4-31.3,3.43l-0.41-1.87L79.9,100.4z"></path>
<path class="st2" d="M112.94,97.09l0.43,1.93c0,0-0.12,1.17,18.85-4.17l-0.43-2.25C131.79,92.61,119.86,97.14,112.94,97.09z"></path>
<path class="st2" d="M140.6,90.34l0.47,1.86l27.22-7.03l-0.31-1.96L140.6,90.34z"></path>
<path class="st2" d="M162.07,81.41l0.27,1.52l5.31-0.92l-0.37-1.95L162.07,81.41L162.07,81.41z"></path>
<path class="st2" d="M137.91,87.64l0.45,2.31l1.01-0.03l-0.55-2.48L137.91,87.64L137.91,87.64z"></path>
<path class="st2" d="M147.69,84.28l0.42,2.76l1.71-0.31l0.7-0.28l-0.34-1.26l-1.27-1.43L147.69,84.28L147.69,84.28z"></path>
<path class="st2" d="M151.14,84.4l0.91-0.2l0.5,1.98l-0.89,0.26L151.14,84.4z"></path>
<path class="st2" d="M128.09,88.8l6.59-2.03l10.32-2.6l0.21,0.65l-10.48,2.76l-3.27,0.98l-3.24,0.84L128.09,88.8L128.09,88.8z"></path>
<path class="st2" d="M151.68,82.57l6.77-1.5l0.23,0.77l-6.75,1.56L151.68,82.57z"></path>
<path class="st2" d="M89.6,93.25c0.05,0.24,0.13,1.75,0.13,1.75L88.88,96l-1.06-0.21l-0.5,0.62l-0.49-0.21l-0.44,0.6l-0.58-0.06&#xA;&#x9;l-0.79,0.74l-0.44,0.29l-0.09,0.46c0,0-2.47,0.29-3.61,0.86c0,0,14.68-1.53,16.08-2.35c1.4-0.82-1.74-0.44-1.74-0.44l-1.29-0.98&#xA;&#x9;l-0.99,0.66l-0.73-0.73l-1.07,0.62l-0.4-0.67l-0.44-0.28l-0.33-1.77L89.6,93.25C89.6,93.25,89.6,93.25,89.6,93.25z"></path>
<g>
&#x9;<path class="st2" d="M158.51,186.93c0,0-2.08,2.96-1.62,3.64c0.46,0.68,3.95-0.17,3.95-0.17l0.78,1.39l2.96,0.67l2.08-3.67&#xA;&#x9;&#x9;c0,0-1.87-3.5-3.42-3.46C161.68,185.37,158.54,186.37,158.51,186.93L158.51,186.93z"></path>
&#x9;<path class="st2" d="M103.35,201.62c0,0,57.43-7.61,57.71-7.75c0.28-0.14,0.51,1.61,0.51,1.61S104.55,204.56,103.35,201.62z"></path>
&#x9;<path class="st2" d="M161.69,193.18l0.28-0.84l2.24,0.6c0,0-1.15,2.21-1.63,2.16C162.1,195.04,161.69,193.18,161.69,193.18z"></path>
&#x9;<path class="st2" d="M154.15,181.71l-2.34,0.36l0.43-4.08l-0.51,0.19l-0.7,3.91l-4.07,0.67l-0.78-0.69l-2.58,0.34l-0.69-3.13&#xA;&#x9;&#x9;l-0.39,0.01l0.42,2.96l-6.68,1.24l-5.43,0.89l-0.54-2.07l-9.31,1.04l-0.27-1.58l-0.51-0.2l-1.36-4.39l-0.56-0.03l1.12,5.07&#xA;&#x9;&#x9;l-5.34,0.95l-1.31-6.28l-1.21,0.19l0.88,3.64l-1.66,0.29l-0.6-3.07l-1.13,0.17l1.46,9.45c0,0-4.46,0.67-4.98,2.59&#xA;&#x9;&#x9;c0,0,44.99-4.47,45.62-4.76c0.64-0.3,3.91-3.52,3.91-3.52L154.15,181.71L154.15,181.71z M119.59,187.01l-0.82,0.18l-0.18-0.82&#xA;&#x9;&#x9;l0.82-0.18L119.59,187.01z M122.02,186.7l-0.74,0.16l-0.16-0.75l0.74-0.16L122.02,186.7z M124.4,186.49l-0.67,0.15l-0.2-0.89&#xA;&#x9;&#x9;l0.67-0.15L124.4,186.49z M126.69,186.22l-0.75,0.16l-0.2-0.89l0.75-0.16L126.69,186.22z"></path>
&#x9;<path class="st2" d="M101.73,199.94l0.37,0.28c0,0-0.87,0.09-0.67,0.72c0.19,0.63,0.68,0.48,0.89,0.48&#xA;&#x9;&#x9;c0.21,0.01,0.33,0.29,0.69,0.53c0.36,0.23,0.03,0.15,2.08,0.69c2.05,0.54,2.77,1,3.03,0.74c0.25-0.26,0.09,0.4,0.09,0.4&#xA;&#x9;&#x9;s-3.74-0.89-4.22-0.95c-0.48-0.05-1.68-0.05-1.85-0.11c-0.17-0.07-0.22-0.78-0.22-0.78s-1.85,0.83-2.34,0.26&#xA;&#x9;&#x9;c-0.49-0.57,0.21-1.19,0.59-1.33C100.55,200.72,101.56,199.88,101.73,199.94L101.73,199.94z"></path>
&#x9;<path class="st2" d="M160.73,190.97l-4.56,0.61l-0.64-0.79l2.32-3.64l-1.27-0.81l-1.02-3.92l-3.75,3.56l-2.52,0.29l0.47,2.12&#xA;&#x9;&#x9;l-0.82,0.18l-0.49-2.2l-1.75,0.2l0.41,1.86l-0.75,0.16l-0.43-1.94l-1.45,0.16l0.48,2.16l-0.67,0.15l-0.49-2.23l-1.45,0.16&#xA;&#x9;&#x9;l0.46,2.08l-0.89,0.2l-0.48-2.17l-3.66,0.42l0.33,1.5l-0.89,0.2l-0.35-1.6c-0.35,0.04-0.71,0.08-1.07,0.12l0.38,1.71l-1.34,0.3&#xA;&#x9;&#x9;l-0.41-1.85c-0.5,0.06-1.01,0.12-1.53,0.17l0.38,1.71l-0.67,0.15l-0.39-1.78c-0.41,0.05-0.81,0.09-1.22,0.14l0.4,1.83l-1.12,0.25&#xA;&#x9;&#x9;l-0.43-1.94c-11.83,1.33-24.04,2.67-24.15,2.53l0.25,1.51c0,0-1.85,1.19-1.57,1.75l1.8,0.7l-0.05,1.18c0,0-3.64,0.49-3.86,1.63&#xA;&#x9;&#x9;c-0.1,0.52-0.15,0.59-0.18,0.52c0.07,0.59,0.28,1.69,0.98,2.04c0,0,56.99-6.41,57.86-7.78C161.8,191.2,160.73,190.97,160.73,190.97&#xA;&#x9;&#x9;L160.73,190.97z M154.86,183.71c0.29,0.09,0.57,0.62,0.57,0.62l0.76,3.62l-0.58,0.91l-1.07-4.65&#xA;&#x9;&#x9;C154.58,184,154.86,183.71,154.86,183.71L154.86,183.71z M110.09,197.47l-0.79-0.06l-0.55-2.15l0.21-0.12l0.67-0.15L110.09,197.47z&#xA;&#x9;&#x9; M112.16,197.25l-0.82,0.18l-0.59-2.68l0.82-0.18L112.16,197.25z M111.51,193.25l-0.91,0.12l-0.37-2.03l0.82-0.18L111.51,193.25&#xA;&#x9;&#x9;L111.51,193.25z M114.28,196.94l-0.75,0.16l-0.48-2.16l0.75-0.16L114.28,196.94z M113.63,192.93l-0.8,0.26l-0.44-2.33l0.87,0.04&#xA;&#x9;&#x9;L113.63,192.93L113.63,192.93z M116.83,197.86l-0.82,0.18l-0.66-2.98l0.82-0.18L116.83,197.86z M115.21,193.37l-0.74-2.65l1.15-0.1&#xA;&#x9;&#x9;l0.65,2.59L115.21,193.37z M118.78,196.8l-0.75,0.16l-0.25-1.12l0.75-0.16L118.78,196.8z M117.98,191.74l-0.89,0.2l-0.31-1.42&#xA;&#x9;&#x9;l0.89-0.2L117.98,191.74z M120.98,196.47l-1.04,0.23l-0.43-1.94l1.04-0.23L120.98,196.47z M119.92,191.7l-0.75,0.16l-0.35-1.57&#xA;&#x9;&#x9;l0.75-0.16L119.92,191.7z M123.19,196.22l-0.75,0.16l-0.48-2.16l0.75-0.16L123.19,196.22z M122.37,191.08l-1.04,0.23l-0.3-1.34&#xA;&#x9;&#x9;l1.04-0.23L122.37,191.08z M125.54,195.54l-0.89,0.2l-0.4-1.79l0.89-0.2L125.54,195.54z M124.81,191.17l-1.04,0.23l-0.35-1.57&#xA;&#x9;&#x9;l1.04-0.23L124.81,191.17z M125.76,192.29l-0.45,0.1l-0.15-0.67l0.45-0.1L125.76,192.29z M127.8,195.51l-0.97,0.21l-0.41-1.86&#xA;&#x9;&#x9;l0.97-0.21L127.8,195.51z M126.86,190.87l-0.82,0.18l-0.35-1.57l0.82-0.18L126.86,190.87z M130.12,195.39l-0.97,0.21l-0.48-2.16&#xA;&#x9;&#x9;l0.97-0.21L130.12,195.39z M129.12,190.53l-0.97,0.21l-0.35-1.57l0.97-0.21L129.12,190.53z M132.47,194.71l-1.12,0.25l-0.4-1.79&#xA;&#x9;&#x9;l1.12-0.25L132.47,194.71z M134.42,194.67l-0.89,0.2l-0.41-1.86l0.89-0.2L134.42,194.67z M137.04,194.17l-1.19,0.26l-0.36-1.64&#xA;&#x9;&#x9;l1.19-0.26L137.04,194.17z M139.16,194.17l-0.89,0.2l-0.46-2.09l0.89-0.2L139.16,194.17z M138.96,187.65l0.97-0.21l0.54,2.46&#xA;&#x9;&#x9;l-0.97,0.21L138.96,187.65z M141.66,194.87l-1.04,0.23l-0.77-3.5l1.04-0.23L141.66,194.87z M143.56,193.59l-0.75,0.16l-0.51-2.31&#xA;&#x9;&#x9;l0.75-0.16L143.56,193.59z M145.81,193.17l-0.82,0.18l-0.51-2.31l0.82-0.18L145.81,193.17z M148.16,192.81l-0.89,0.2l-0.48-2.16&#xA;&#x9;&#x9;l0.89-0.2L148.16,192.81z M150.47,192.3l-0.89,0.2l-0.44-2.01l0.89-0.2L150.47,192.3z M153.79,191.06c0,0,0.03,0.5-0.32,0.66&#xA;&#x9;&#x9;c-0.36,0.16-0.36-0.04-0.55-0.35c-0.19-0.31-0.27-1.78-0.27-1.78l0.95,0.41L153.79,191.06L153.79,191.06z M153.41,189.15&#xA;&#x9;&#x9;l-0.81-0.49c0,0-0.37-1.87-0.42-2.06c-0.04-0.19,0.01-0.82,0.19-0.9c0.18-0.08,0.59,0.73,0.59,0.73L153.41,189.15z M155.1,190.1&#xA;&#x9;&#x9;l-0.8-0.45l-0.91-4.1c-0.06-0.26-0.01-0.94,0.21-0.99s0.52,0.75,0.52,0.75L155.1,190.1L155.1,190.1z M102.09,198.31&#xA;&#x9;&#x9;c-0.03-0.23-0.03-0.39-0.03-0.39S102.06,198.22,102.09,198.31z"></path>
&#x9;<path class="st2" d="M167.53,188.74c0,0,2.08,1.63,3.66,1.95s12.82-0.49,15.05-1.97c2.23-1.48,6.02-0.34,7.4-0.23&#xA;&#x9;&#x9;c1.38,0.11,2.39-0.27,2.39-0.27l0.21,0.47c0,0-9.43,0.47-10.03,1.07c-0.6,0.6-13.39,2.85-15.03,2.02&#xA;&#x9;&#x9;c-1.64-0.84-4.24-1.72-4.36-1.59C166.69,190.33,167.53,188.74,167.53,188.74L167.53,188.74z"></path>
&#x9;<path class="st2" d="M166.43,191.07c0,0,4.04,1.76,5.21,1.66c1.18-0.1,9.02-0.93,11.24-1.39c0,0,3.22-0.4,3.67-0.97&#xA;&#x9;&#x9;c0.45-0.57,3.32-0.79,4.07-0.69c0.75,0.09,3.43-0.29,3.43-0.29l0.13,0.34c0,0-5.48,0.6-6.26,0.91c-0.84,0.34-3.78,1.41-4.67,1.5&#xA;&#x9;&#x9;c-0.62,0.07-11.07,2.03-12.25,1.2s-5.2-0.67-5.2-0.67L166.43,191.07L166.43,191.07z"></path>
&#x9;<path class="st2" d="M165.74,193.36c0,0,3,0.12,4.16,0.44s2.01,0.39,2.01,0.39l0.05,0.25c0,0-5.77,0.02-6.13,0.1&#xA;&#x9;&#x9;c-0.03,0.01-0.12-1.02-0.12-1.02"></path>
</g>
<path class="st10" d="M146.72,262.19L37.28,178.02c-8.69-6.69-11.34-18.65-6.27-28.38L94.79,27.2c6.5-12.48,22.69-16.06,33.85-7.48&#xA;&#x9;l109.44,84.17c8.69,6.69,11.34,18.65,6.27,28.38l-63.78,122.44C174.06,267.19,157.87,270.76,146.72,262.19z"></path>
<path class="st11" d="M145.56,246.72l-95.47-73.43c-7.58-5.83-9.89-16.27-5.47-24.75l55.64-106.82c5.67-10.89,19.8-14.01,29.53-6.52&#xA;&#x9;l95.47,73.43c7.58,5.83,9.89,16.27,5.47,24.75l-55.64,106.82C169.42,251.08,155.29,254.2,145.56,246.72z"></path>
</svg>