<?xml version="1.0" encoding="utf-8"?>

<svg version="1.1" id="Layer_1" xmlns="http://www.w3.org/2000/svg" xmlns:xlink="http://www.w3.org/1999/xlink" x="0px" y="0px" viewBox="0 0 276 276" style="enable-background:new 0 0 276 276;" xml:space="preserve">

<g>
&#x9;<path class="st16" d="M64.45,151.81l-1.15-4.76l7.14-1.73l-6.27-25.95l-7.14,1.73l-1.15-4.76l19.68-4.76l1.15,4.76l-7.19,1.74&#xA;&#x9;&#x9;l6.27,25.95l7.19-1.74l1.15,4.76L64.45,151.81z"></path>
&#x9;<path class="st16" d="M93.76,144.73l-8.58-35.48l6.66-1.61l17.43,27.01c-0.28-0.89-0.63-1.97-1.04-3.25&#xA;&#x9;&#x9;c-0.41-1.27-0.81-2.6-1.19-3.98c-0.39-1.38-0.72-2.66-1-3.82l-4.43-18.32l4.86-1.17l8.58,35.48l-6.61,1.6L91,114.17&#xA;&#x9;&#x9;c0.28,0.86,0.61,1.9,0.99,3.13c0.38,1.23,0.77,2.51,1.16,3.86c0.39,1.35,0.73,2.6,1.01,3.77l4.5,18.62L93.76,144.73z"></path>
&#x9;<path class="st16" d="M123.99,137.43l-8.58-35.48l9.91-2.39c2.33-0.56,4.47-0.61,6.4-0.13s3.57,1.42,4.92,2.82&#xA;&#x9;&#x9;c1.35,1.41,2.29,3.19,2.82,5.36l3.31,13.71c0.54,2.24,0.53,4.28-0.04,6.13c-0.56,1.85-1.6,3.44-3.09,4.76&#xA;&#x9;&#x9;c-1.5,1.32-3.41,2.27-5.75,2.83L123.99,137.43z M128.1,131.44l4.67-1.13c1.91-0.46,3.3-1.38,4.17-2.76&#xA;&#x9;&#x9;c0.87-1.38,1.07-3.04,0.6-4.98l-3.31-13.71c-0.45-1.88-1.38-3.24-2.79-4.08c-1.41-0.84-3.06-1.04-4.97-0.57l-4.67,1.13&#xA;&#x9;&#x9;L128.1,131.44z"></path>
&#x9;<path class="st16" d="M154.85,129.97l-1.15-4.76l7.14-1.73l-6.27-25.95l-7.14,1.73l-1.15-4.76l19.68-4.76l1.15,4.76l-7.19,1.74&#xA;&#x9;&#x9;l6.27,25.95l7.19-1.74l1.15,4.76L154.85,129.97z"></path>
&#x9;<path class="st16" d="M182.31,123.33l0.46-37.66l6.9-1.67l17.66,33.28l-5.35,1.29l-4.31-8.47l-10.06,2.43l0.04,9.51L182.31,123.33z&#xA;&#x9;&#x9; M187.53,107.92l8.07-1.95l-4.9-9.62c-0.86-1.71-1.59-3.2-2.18-4.46c-0.6-1.26-1.01-2.14-1.23-2.63c0.03,0.54,0.07,1.51,0.13,2.9&#xA;&#x9;&#x9;c0.06,1.39,0.08,3.03,0.06,4.92L187.53,107.92z"></path>
</g>
<ellipse transform="matrix(0.972 -0.2349 0.2349 0.972 -30.4652 36.6842)" class="st17" cx="138.74" cy="146.21" rx="131.3" ry="99.1"></ellipse>
<ellipse transform="matrix(0.972 -0.2349 0.2349 0.972 -30.4652 36.6842)" class="st18" cx="138.74" cy="146.21" rx="115.39" ry="87.09"></ellipse>
<path class="st16" d="M209.1,186.08l-2.92-11.03l0,0l-0.15-0.55l0.48-0.12l-0.37-1.53l-0.51,0.12l-2.79-10.54l0.49-0.12l-0.37-1.53&#xA;&#x9;l-0.52,0.13l-2.5-9.44l1.58-0.38l-0.28-1.17l-0.53,0.13l0.01-0.01l-1.18-4.86l0.51-0.12l-0.28-1.17l-0.38,0.09&#xA;&#x9;c-0.06-0.34-0.8-3.78-4.51-3.89l0.02,0l-0.36-0.52l-0.36,0.09l-0.06-0.22c0.15-0.11,0.22-0.3,0.18-0.48&#xA;&#x9;c-0.05-0.2-0.22-0.33-0.41-0.35l-0.07-0.26c0.1-0.08,0.16-0.21,0.12-0.35c-0.03-0.14-0.16-0.24-0.29-0.26l-0.06-0.2l-0.21,0.05&#xA;&#x9;l0.04,0.2c-0.12,0.08-0.18,0.22-0.14,0.36c0.03,0.14,0.14,0.23,0.27,0.25l0.05,0.27c-0.16,0.1-0.25,0.3-0.21,0.5&#xA;&#x9;c0.05,0.19,0.2,0.32,0.38,0.35l0.05,0.23l-0.36,0.09l-0.09,0.63l0.02,0c-3.24,1.8-2.33,5.19-2.23,5.53l-0.43,0.1l0.28,1.17&#xA;&#x9;l0.67-0.16l1.18,4.86l0.02,0l-0.69,0.17l0.28,1.17l1.58-0.38l0.13,0.61l0,0l1.97,8.93l-0.52,0.13l0.37,1.53l0.49-0.12l0.1,0.47l0,0&#xA;&#x9;l2.24,10.17l-0.51,0.12l0.37,1.53l0.48-0.12l2.58,11.7l-5.97,1.45l-1.84-6.96l0,0l-0.1-0.38l0.33-0.08l-0.26-1.06l-0.35,0.09&#xA;&#x9;l-1.84-6.96l0,0l-0.09-0.32l0.34-0.08l-0.26-1.06l-0.36,0.09l-1.62-6.11l0,0l-0.11-0.42l1.09-0.26l-0.2-0.81l-0.36,0.09l0.01,0&#xA;&#x9;l-0.82-3.36l0.35-0.09l-0.2-0.81l-0.26,0.06c-0.05-0.23-0.56-2.61-3.12-2.69l0.01,0l-0.25-0.36l-0.25,0.06l-0.04-0.15&#xA;&#x9;c0.1-0.07,0.15-0.21,0.12-0.33c-0.03-0.14-0.15-0.23-0.28-0.24l-0.05-0.18c0.07-0.05,0.11-0.15,0.09-0.24&#xA;&#x9;c-0.02-0.1-0.11-0.17-0.2-0.18l-0.04-0.14l-0.14,0.03l0.03,0.14c-0.08,0.05-0.12,0.15-0.1,0.25c0.02,0.09,0.1,0.16,0.19,0.18&#xA;&#x9;l0.04,0.18c-0.11,0.07-0.18,0.21-0.14,0.35c0.03,0.13,0.14,0.22,0.26,0.24l0.03,0.16l-0.25,0.06l-0.06,0.44l0.01,0&#xA;&#x9;c-2.24,1.24-1.61,3.59-1.54,3.82l-0.3,0.07l0.2,0.81l0.46-0.11l0.82,3.36l0.01,0l-0.47,0.11l0.2,0.81l1.09-0.26l1.45,6.6l-0.36,0.09&#xA;&#x9;l0.26,1.06l0.34-0.08l1.62,7.36l-0.35,0.09l0.26,1.06l0.33-0.08l0.08,0.39l0,0l1.55,7.03l-3.72,0.9l-5.42-22.38l-7.61,1.84&#xA;&#x9;l-0.59-2.41l-1.66,0.4l-1.52-6.26l0.31-0.08l-0.21-0.85l-0.39,0.09c-0.09-0.5-1.13-5.22-6.24-5.38l0.03-0.01l-0.5-0.72l-0.5,0.12&#xA;&#x9;l-0.09-0.31c0.2-0.15,0.31-0.41,0.25-0.67c-0.07-0.27-0.3-0.46-0.57-0.48l-0.1-0.36c0.14-0.11,0.22-0.3,0.17-0.49&#xA;&#x9;c-0.05-0.2-0.22-0.33-0.41-0.35l-0.08-0.28l-0.28,0.07l0.06,0.28c-0.16,0.11-0.25,0.3-0.2,0.5c0.05,0.19,0.2,0.32,0.38,0.35&#xA;&#x9;l0.08,0.37c-0.23,0.14-0.35,0.42-0.28,0.69c0.06,0.26,0.28,0.44,0.52,0.48l0.06,0.31l-0.5,0.12l-0.12,0.87l0.03-0.01&#xA;&#x9;c-4.47,2.48-3.23,7.15-3.08,7.64l-0.38,0.09l0.21,0.85l0.31-0.08l1.52,6.26l-1.18,0.29l0,0l-0.98-4.03l-0.07,0.02l0.01-0.02&#xA;&#x9;c0,0-1.98-12.26-14.54-12.66l0.03-0.01l-1.18-1.68l-1.17,0.28l-0.2-0.72c0.47-0.35,0.72-0.95,0.57-1.56&#xA;&#x9;c-0.16-0.64-0.7-1.08-1.33-1.14l-0.23-0.83c0.34-0.26,0.51-0.7,0.4-1.13c-0.11-0.46-0.51-0.79-0.95-0.83l-0.18-0.65l-0.66,0.16&#xA;&#x9;l0.13,0.66c-0.38,0.25-0.58,0.71-0.47,1.18c0.11,0.44,0.46,0.75,0.88,0.82l0.17,0.85c-0.53,0.33-0.82,0.98-0.66,1.62&#xA;&#x9;c0.15,0.61,0.64,1.04,1.22,1.13l0.15,0.73l-1.17,0.28l-0.28,2.03l0.03-0.01c-10.99,6.11-7.13,17.91-7.13,17.91l0.02,0.01l-0.07,0.02&#xA;&#x9;l0.98,4.03l-1.18,0.29l-1.52-6.26l0.31-0.08l-0.21-0.85l-0.38,0.09c-0.09-0.49-1.13-5.22-6.24-5.38l0.03-0.01l-0.5-0.72l-0.5,0.12&#xA;&#x9;l-0.09-0.31c0.2-0.15,0.31-0.41,0.25-0.67c-0.07-0.27-0.3-0.46-0.57-0.48l-0.1-0.36c0.14-0.11,0.22-0.3,0.17-0.49&#xA;&#x9;c-0.05-0.2-0.22-0.33-0.41-0.35l-0.08-0.28l-0.28,0.07l0.06,0.28c-0.16,0.1-0.25,0.3-0.2,0.5c0.05,0.19,0.2,0.32,0.38,0.35&#xA;&#x9;l0.08,0.37c-0.23,0.14-0.35,0.42-0.28,0.69c0.06,0.26,0.28,0.44,0.52,0.48l0.06,0.31l-0.5,0.12l-0.12,0.87l0.03-0.01&#xA;&#x9;c-4.47,2.48-3.23,7.16-3.08,7.64l-0.39,0.09l0.21,0.85l0.31-0.08l1.52,6.26l-1.65,0.4l0,0l0,0l0.22,0.9l0,0l0.37,1.51l-7.61,1.84&#xA;&#x9;l5.42,22.38l-3.72,0.9l-1.94-7.34l0.33-0.08l-0.26-1.06l-0.35,0.09l-1.93-7.29l0.34-0.08l-0.26-1.06l-0.36,0.09l-1.62-6.11&#xA;&#x9;l-0.11-0.42l1.09-0.26l-0.2-0.81l-0.47,0.11l0.01,0l-0.82-3.36l0.46-0.11l-0.2-0.81l-0.3,0.07c-0.04-0.24-0.56-2.61-3.12-2.69&#xA;&#x9;l0.01,0l-0.25-0.36l-0.25,0.06l-0.04-0.15c0.1-0.07,0.15-0.2,0.12-0.33c-0.03-0.14-0.15-0.23-0.28-0.24l-0.05-0.18&#xA;&#x9;c0.07-0.05,0.11-0.15,0.09-0.24c-0.02-0.1-0.11-0.17-0.2-0.18l-0.04-0.14l-0.14,0.03l0.03,0.14c-0.08,0.05-0.12,0.15-0.1,0.25&#xA;&#x9;c0.02,0.09,0.1,0.16,0.19,0.18l0.04,0.18c-0.11,0.07-0.18,0.21-0.14,0.35c0.03,0.13,0.14,0.22,0.26,0.24l0.03,0.16l-0.25,0.06&#xA;&#x9;l-0.06,0.43l0.01,0c-2.24,1.24-1.61,3.59-1.54,3.82l-0.26,0.06l0.2,0.81l0.35-0.09l0.82,3.36l0.01,0l-0.37,0.09l0.2,0.81l1.09-0.26&#xA;&#x9;l0.08,0.38l0.01,0.05l1.36,6.17l-0.36,0.09l0.26,1.06l0.34-0.08l0.07,0.33l1.55,7.04l-0.35,0.09l0.26,1.06l0.33-0.08l0.09,0.39&#xA;&#x9;l1.55,7.03l-5.97,1.45l-3.06-11.59l0.48-0.12l-0.37-1.53l-0.51,0.12l-2.66-10.07l-0.05-0.17l-0.08-0.29l0.49-0.12l-0.37-1.53&#xA;&#x9;l-0.52,0.13l-2.34-8.84l-0.16-0.6l1.58-0.38l-0.28-1.17l-0.67,0.16l0,0L92,171.25l0.67-0.16l-0.28-1.17l-0.43,0.1&#xA;&#x9;c-0.06-0.34-0.8-3.78-4.51-3.89l0.02,0l-0.36-0.52l-0.36,0.09l-0.06-0.22c0.15-0.11,0.22-0.3,0.18-0.48&#xA;&#x9;c-0.05-0.2-0.22-0.33-0.41-0.35l-0.07-0.26c0.1-0.08,0.16-0.22,0.12-0.35c-0.03-0.14-0.16-0.24-0.3-0.26l-0.06-0.2l-0.21,0.05&#xA;&#x9;l0.04,0.2c-0.12,0.08-0.18,0.22-0.15,0.36c0.03,0.14,0.14,0.23,0.27,0.25l0.05,0.27c-0.16,0.1-0.25,0.3-0.21,0.5&#xA;&#x9;c0.05,0.19,0.2,0.32,0.38,0.35l0.05,0.23l-0.36,0.09l-0.09,0.63l0.02,0c-3.24,1.8-2.33,5.19-2.23,5.53l-0.38,0.09l0.28,1.17&#xA;&#x9;l0.51-0.12l1.18,4.86l0.01,0l-0.52,0.13l0.28,1.17l1.58-0.38l2.1,9.54l-0.52,0.13l0.37,1.53l0.49-0.12l0.1,0.47l2.24,10.17&#xA;&#x9;l-0.51,0.12l0.37,1.53l0.48-0.12l0.12,0.56l2.46,11.15l-4.14,1l1.81,7.45l123.01-29.82l-1.81-7.45L209.1,186.08z M197.63,147.82&#xA;&#x9;c-0.13-0.54,0.2-1.09,0.74-1.22c0.54-0.13,1.09,0.2,1.22,0.74l0.37,1.52l-1.96,0.47L197.63,147.82z M195.16,148.42&#xA;&#x9;c-0.13-0.54,0.2-1.09,0.74-1.22c0.54-0.13,1.09,0.2,1.22,0.74l0.37,1.52l-1.96,0.47L195.16,148.42z M192.64,149.03&#xA;&#x9;c-0.13-0.54,0.2-1.09,0.74-1.22c0.54-0.13,1.09,0.2,1.22,0.74l0.37,1.52l-1.96,0.48L192.64,149.03z M188.05,163.51&#xA;&#x9;c-0.09-0.37,0.14-0.75,0.51-0.84c0.38-0.09,0.75,0.14,0.84,0.51l0.25,1.05l-1.35,0.33L188.05,163.51z M186.33,163.93&#xA;&#x9;c-0.09-0.37,0.14-0.75,0.51-0.84c0.37-0.09,0.75,0.14,0.84,0.51l0.25,1.05l-1.35,0.33L186.33,163.93z M184.85,165.4l-0.25-1.05&#xA;&#x9;c-0.09-0.37,0.14-0.75,0.51-0.84c0.38-0.09,0.75,0.14,0.84,0.51l0.25,1.05L184.85,165.4z M104.85,183.68&#xA;&#x9;c-0.09-0.37,0.14-0.75,0.51-0.84c0.37-0.09,0.75,0.14,0.84,0.51l0.25,1.05l-1.35,0.33L104.85,183.68z M103.11,184.1&#xA;&#x9;c-0.09-0.37,0.14-0.75,0.51-0.84c0.37-0.09,0.75,0.14,0.84,0.51l0.25,1.05l-1.35,0.33L103.11,184.1z M101.65,185.57l-0.25-1.05&#xA;&#x9;c-0.09-0.37,0.14-0.75,0.51-0.84c0.37-0.09,0.75,0.14,0.84,0.51l0.25,1.05L101.65,185.57z M90.08,173.89&#xA;&#x9;c-0.13-0.54,0.2-1.09,0.74-1.22c0.54-0.13,1.09,0.2,1.22,0.74l0.37,1.52l-1.96,0.47L90.08,173.89z M87.56,174.5&#xA;&#x9;c-0.13-0.54,0.2-1.09,0.74-1.22c0.54-0.13,1.09,0.2,1.22,0.74l0.37,1.52l-1.96,0.47L87.56,174.5z M85.45,176.62l-0.37-1.52&#xA;&#x9;c-0.13-0.54,0.2-1.09,0.74-1.22c0.54-0.13,1.09,0.2,1.22,0.74l0.37,1.52L85.45,176.62z M176.7,175.88c-0.33-1.36,0.5-2.73,1.86-3.05&#xA;&#x9;c1.36-0.33,2.73,0.5,3.05,1.86l0.98,4.05l-4.92,1.19L176.7,175.88z M179.54,187.59c-0.33-1.36,0.5-2.73,1.86-3.05&#xA;&#x9;c1.36-0.33,2.73,0.5,3.05,1.86l0.98,4.05l-4.92,1.19L179.54,187.59z M175.95,194.11l-6.92,1.68l-1.31-5.41&#xA;&#x9;c-0.46-1.91,0.71-3.84,2.62-4.3c1.91-0.46,3.84,0.71,4.3,2.62L175.95,194.11z M167.71,166.07c-0.08-0.32-0.02-0.64,0.14-0.9&#xA;&#x9;c0.16-0.26,0.42-0.46,0.74-0.54c0.64-0.16,1.29,0.24,1.44,0.88l0.54,2.23l-2.32,0.56L167.71,166.07z M163.95,166.98&#xA;&#x9;c-0.08-0.32-0.02-0.64,0.14-0.9c0.16-0.26,0.42-0.46,0.74-0.54c0.64-0.16,1.29,0.24,1.44,0.88l0.54,2.23l-2.32,0.56L163.95,166.98z&#xA;&#x9; M167.12,172.8c1.91-0.46,3.84,0.71,4.3,2.62l1.38,5.71l-6.92,1.68l-1.38-5.71C164.04,175.18,165.21,173.26,167.12,172.8z&#xA;&#x9; M160.3,167.87c-0.08-0.32-0.02-0.64,0.14-0.9c0.16-0.26,0.42-0.46,0.74-0.54c0.64-0.16,1.29,0.24,1.44,0.88l0.54,2.23l-2.32,0.56&#xA;&#x9;L160.3,167.87z M147.51,182.56c3.61-0.87,7.24,1.34,8.12,4.95l2.64,10.89l-13.07,3.17l-2.64-10.89&#xA;&#x9;C141.69,187.07,143.9,183.43,147.51,182.56z M127.51,205.86l-1.31-5.41c-0.46-1.91,0.71-3.84,2.62-4.3c1.91-0.46,3.84,0.71,4.3,2.62&#xA;&#x9;l1.31,5.41L127.51,205.86z M124.36,192.87l-1.38-5.71c-0.46-1.91,0.71-3.84,2.62-4.3c1.91-0.46,3.84,0.71,4.3,2.62l1.38,5.71&#xA;&#x9;L124.36,192.87z M127.1,175.92c-0.16-0.64,0.24-1.29,0.88-1.44c0.32-0.08,0.64-0.02,0.9,0.14c0.26,0.16,0.46,0.42,0.54,0.74&#xA;&#x9;l0.54,2.23l-2.32,0.56L127.1,175.92z M123.44,176.8c-0.16-0.64,0.24-1.29,0.88-1.44c0.32-0.08,0.64-0.02,0.9,0.14&#xA;&#x9;c0.26,0.16,0.46,0.42,0.54,0.74l0.54,2.23l-2.32,0.56L123.44,176.8z M119.68,177.71c-0.16-0.64,0.24-1.29,0.88-1.44&#xA;&#x9;c0.32-0.08,0.64-0.02,0.9,0.14c0.26,0.16,0.46,0.42,0.54,0.74l0.54,2.23l-2.32,0.56L119.68,177.71z M113.58,191.18&#xA;&#x9;c-0.33-1.36,0.51-2.73,1.86-3.05c1.36-0.33,2.73,0.5,3.05,1.86l0.98,4.05l-4.92,1.19L113.58,191.18z M116.42,202.89&#xA;&#x9;c-0.33-1.36,0.51-2.73,1.86-3.05c1.36-0.33,2.73,0.51,3.05,1.86l0.98,4.05l-4.92,1.19L116.42,202.89z"></path>
</svg>